<svg width="72" height="68" viewBox="0 0 72 68" fill="none" xmlns="http://www.w3.org/2000/svg">
<path d="M26.3545 0C27.411 0.00020667 28.2717 0.826302 28.4004 1.875C28.9396 6.26971 30.501 7.98311 35.7344 8C41.0617 7.9725 42.7481 6.40259 43.1406 1.9668C43.2369 0.879137 44.1103 5.73229e-05 45.2021 0H48.7891C49.6515 0 50.4175 0.553244 50.6885 1.37207L71.8643 65.3721C72.2924 66.6663 71.329 68 69.9658 68H66.5527C65.7529 67.9998 65.03 67.5232 64.7148 66.7881L62.7539 62.2119C62.4388 61.4768 61.7158 61.0002 60.916 61H51.208C49.9349 61.0002 48.9862 62.1741 49.2529 63.4189L49.7158 65.5811C49.9825 66.8259 49.0338 67.9998 47.7607 68H44.7139C43.8348 68 43.0591 67.4255 42.8018 66.585L37.7129 49.9629C37.1297 48.0586 34.4253 48.0841 33.8779 49.999L29.1484 66.5498C28.903 67.4082 28.1184 68 27.2256 68H24.208C22.9349 67.9998 21.9862 66.8259 22.2529 65.5811L22.7158 63.4189C22.9825 62.1741 22.0338 61.0002 20.7607 61H11.0527C10.2529 61.0002 9.52999 61.4768 9.21484 62.2119L7.25391 66.7881C6.93875 67.5232 6.21583 67.9998 5.41602 68H2.00293C0.639728 68 -0.323612 66.6663 0.104492 65.3721L21.2803 1.37207C21.5512 0.553244 22.3172 0 23.1797 0H26.3545ZM17.4395 38C17.0168 38 16.6392 38.2661 16.4971 38.6641L12.2119 50.6641C11.9796 51.3152 12.4619 52 13.1533 52H24.5293C24.9519 52 25.3295 51.7339 25.4717 51.3359L29.7568 39.3359C29.9892 38.6848 29.5068 38 28.8154 38H17.4395ZM43.1533 38C42.4619 38 41.9796 38.6848 42.2119 39.3359L46.4971 51.3359C46.6392 51.7339 47.0168 52 47.4395 52H58.8154C59.5068 52 59.9892 51.3152 59.7568 50.6641L55.4717 38.6641C55.3295 38.2661 54.9519 38 54.5293 38H43.1533ZM24.7881 16.3184C24.412 15.491 23.2161 15.5538 22.9287 16.416L18.6729 29.1836C18.457 29.8311 18.9395 30.5 19.6221 30.5H29.6816C30.4088 30.4998 30.8927 29.748 30.5918 29.0859L24.7881 16.3184ZM49.04 16.416C48.7526 15.5538 47.5568 15.491 47.1807 16.3184L41.377 29.0859C41.076 29.748 41.56 30.4998 42.2871 30.5H52.3467C53.0292 30.5 53.5117 29.8311 53.2959 29.1836L49.04 16.416ZM34.0781 15C33.4085 15.0002 32.9279 15.6457 33.1201 16.2871L34.7764 21.8076C35.0616 22.7574 36.4072 22.7574 36.6924 21.8076L38.3486 16.2871C38.5408 15.6457 38.0602 15.0002 37.3906 15H34.0781Z" fill="#D9D9D9"></path>
</svg>